<?xml version="1.0" standalone="no"?>
<!DOCTYPE svg PUBLIC "-//W3C//DTD SVG 1.1//EN" "http://www.w3.org/Graphics/SVG/1.1/DTD/svg11.dtd" >
<svg xmlns="http://www.w3.org/2000/svg">
<metadata></metadata>
<defs>
<font id="yoshitoshibold" horiz-adv-x="960" >
<font-face units-per-em="2048" ascent="1638" descent="-410" />
<missing-glyph horiz-adv-x="1100" />
<glyph horiz-adv-x="2048" />
<glyph horiz-adv-x="2048" />
<glyph unicode="&#xd;" horiz-adv-x="1100" />
<glyph unicode=" "  horiz-adv-x="1100" />
<glyph unicode="&#x09;" horiz-adv-x="1100" />
<glyph unicode="&#xa0;" horiz-adv-x="1100" />
<glyph unicode="!" horiz-adv-x="428" d="M170 660v446h194v-446h-194zM170 1200v872h194v-872h-194z" />
<glyph unicode="&#x22;" horiz-adv-x="606" d="M80 2114l200 -88l4 -648l-200 88zM342 2114l200 -88l4 -648l-200 88z" />
<glyph unicode="#" horiz-adv-x="972" d="M86 1102v194h186v112h-186v194h186v186h194v-186h112v186h194v-186h186v-194h-186v-112h186v-194h-186v-186h-194v186h-112v-186h-194v186h-186zM466 1296h112v112h-112v-112z" />
<glyph unicode="$" horiz-adv-x="758" d="M14 1178q172 36 244 64q164 60 188 152q-110 156 -338 304h-28v204h206v180h194v-180h280v-204h-322q166 -126 258 -344v-16q-76 -150 -216 -230v-188h-194v116q-64 -16 -152 -24q-62 82 -120 166z" />
<glyph unicode="%" horiz-adv-x="1390" d="M80 1624q0 166 100 292q108 134 270 134q126 0 226 -88q90 -82 126 -208l154 336h228l-242 -530q46 14 96 14q164 0 272 -134q100 -124 100 -292t-100 -292q-108 -134 -272 -134q-124 0 -222 84q-90 76 -128 198l-156 -344h-232l254 556q-50 -18 -104 -18 q-166 0 -272 134q-98 124 -98 292zM268 1624q0 -84 48 -148q52 -70 134 -70q84 0 136 70q46 62 46 148q0 84 -50 150t-132 66t-132 -66t-50 -150zM856 1148q0 -84 50 -150t132 -66t132 66t50 150q0 86 -46 148q-52 70 -136 70q-82 0 -132 -67t-50 -151z" />
<glyph unicode="'" horiz-adv-x="390" d="M76 1520l126 644l184 -90l-126 -644z" />
<glyph unicode="(" horiz-adv-x="594" d="M86 1364q-18 428 294 866h242q-322 -426 -322 -800q0 -428 316 -928h-236q-276 434 -294 862z" />
<glyph unicode=")" horiz-adv-x="594" d="M56 2230h240q314 -440 296 -866q-18 -424 -296 -862h-234q284 456 310 866q26 404 -316 862z" />
<glyph unicode="*" horiz-adv-x="934" d="M36 1630l354 136l134 352l136 -352l354 -136l-354 -134l-136 -354l-134 354zM512 1630q0 -12 12 -12q14 0 14 12q0 14 -14 14q-12 0 -12 -14z" />
<glyph unicode="+" d="M84 1266v194h338v340h194v-340h340v-194h-340v-338h-194v338h-338z" />
<glyph unicode="," horiz-adv-x="366" d="M24 494l126 642l184 -90l-126 -642z" />
<glyph unicode="-" d="M78 1330v192h872v-192h-872z" />
<glyph unicode="." horiz-adv-x="366" d="M90 654v446h194v-446h-194z" />
<glyph unicode="/" horiz-adv-x="896" d="M72 648l656 1428h228l-650 -1428h-234z" />
<glyph unicode="0" horiz-adv-x="744" d="M74 1366q0 226 62 432q90 294 262 294q176 0 264 -310q60 -208 60 -416q0 -224 -64 -432q-88 -294 -260 -294t-262 294q-62 206 -62 432zM280 1366q0 -138 24 -294q32 -226 94 -226t94 228q24 156 24 292t-24 292q-32 228 -94 228q-56 0 -92 -218q-26 -156 -26 -302z" />
<glyph unicode="1" horiz-adv-x="594" d="M70 1952l196 106v22h198v-1228h118v-198h-422v198h106v980l-102 -54z" />
<glyph unicode="2" horiz-adv-x="706" d="M78 828q0 152 96 328q152 280 160 296q104 210 104 308q0 28 -6 48q-12 54 -164 54q-64 0 -184 -14v242q464 -24 552 -170q46 -78 46 -170q0 -86 -36 -178q-32 -76 -212 -390q-120 -210 -146 -336h402v-200h-606v108q-6 36 -6 74z" />
<glyph unicode="3" horiz-adv-x="706" d="M80 1876v200h604v-200h-20l-242 -288q162 -276 168 -290q98 -186 110 -308q32 -330 -604 -358v242l14 -2q108 -14 168 -14q180 0 180 114q0 90 -102 274q-42 80 -154 290l-46 82l240 258h-316z" />
<glyph unicode="4" horiz-adv-x="644" d="M70 1176l370 904h188v-1426h-196l-2 168v224h-246v22zM320 1258h110v276z" />
<glyph unicode="5" horiz-adv-x="706" d="M74 1892q0 40 6 76v108h604v-200h-400q26 -128 146 -336q182 -316 212 -390q36 -92 36 -178q0 -92 -46 -170q-88 -148 -552 -170v242q122 -16 188 -16q146 0 162 54q4 18 4 50q0 96 -104 308q-16 30 -160 296q-96 176 -96 326z" />
<glyph unicode="6" horiz-adv-x="706" d="M84 1368q0 226 62 432q90 294 262 294q116 0 202 -152q54 -94 94 -268h-202q-44 214 -94 214q-54 0 -88 -178q-20 -108 -26 -234q60 42 126 42q142 0 226 -158q68 -128 68 -282t-68 -282q-84 -158 -226 -158q-126 0 -208 122q-66 98 -84 238q-44 134 -44 370zM330 1078 q0 -164 58 -216q16 -18 32 -18q44 0 70 100q18 72 18 134q0 60 -20 134q-24 100 -68 100t-70 -98q-20 -72 -20 -136z" />
<glyph unicode="7" horiz-adv-x="682" d="M76 2084q126 -6 606 -6l-186 -1426h-202l160 1198h-376z" />
<glyph unicode="8" horiz-adv-x="732" d="M76 1074q0 220 126 348q-84 108 -84 272q0 142 70 254q80 128 216 128q132 0 214 -130q72 -114 72 -252q0 -164 -86 -272q126 -128 126 -348q0 -162 -80 -290q-92 -148 -246 -148q-152 0 -246 148q-82 128 -82 290zM282 1074q0 -72 26 -142q36 -90 96 -90q58 0 94 92 q26 70 26 140t-26 142q-36 92 -94 92q-56 0 -90 -82q-32 -72 -32 -152zM324 1694q0 -54 16 -104q22 -72 64 -72q40 0 62 72q18 54 18 104t-18 104q-24 72 -62 72q-18 0 -34 -16q-46 -48 -46 -160z" />
<glyph unicode="9" horiz-adv-x="758" d="M84 1648q0 160 82 290q94 150 246 150t246 -150q80 -130 80 -290v-1002h-206v594q-58 -30 -120 -30q-154 0 -248 148q-80 126 -80 290zM290 1648q0 -72 26 -142q36 -90 96 -90q40 0 74 52q46 70 46 150v30q0 78 -32 152q-34 82 -88 82q-60 0 -96 -92q-26 -70 -26 -142z " />
<glyph unicode=":" horiz-adv-x="366" d="M80 660v444h192v-444h-192zM80 1304v446h192v-446h-192z" />
<glyph unicode=";" horiz-adv-x="366" d="M24 494l126 642l184 -90l-126 -642zM82 1320v446h194v-446h-194z" />
<glyph unicode="=" d="M86 1024v194h870v-194h-870zM86 1330v194h870v-194h-870z" />
<glyph unicode="?" horiz-adv-x="872" d="M84 1796v284h780l-10 -236q-228 -146 -408 -410l140 38l54 -184l-428 -120l-32 110l-16 58q176 392 376 552h-262v-92h-194zM236 668v446h194v-446h-194z" />
<glyph unicode="@" horiz-adv-x="1376" d="M90 1362q0 286 182 496q188 218 472 218q282 0 472 -218q182 -208 182 -496q0 -286 -182 -496q-188 -218 -472 -218t-472 218q-182 210 -182 496zM306 1362q0 -198 116 -346q126 -162 320 -162q14 0 28 2q-342 38 -342 280q0 208 290 592q24 -28 196 -222v202h148l-4 4 q-126 158 -316 158q-194 0 -320 -162q-116 -148 -116 -346zM652 1144q0 -118 196 -118q30 0 66 4v250q-48 52 -146 156q-116 -194 -116 -292zM1112 1094q66 118 66 268q0 148 -66 270v-538z" />
<glyph unicode="A" horiz-adv-x="858" d="M76 652q0 510 56 784q94 450 374 652q42 -46 104 -114l32 -38v146h200v-1440h-200v686h-310q-50 -222 -50 -676h-206zM390 1534h252v172q-54 52 -104 110q-76 -56 -148 -282z" />
<glyph unicode="B" horiz-adv-x="910" d="M80 652v1434h198v-206q88 98 196 222q292 -386 292 -592q0 -66 -26 -118q182 -254 190 -402q1 -10 1 -20q0 -279 -427 -310q-134 -10 -288 -10q-66 0 -136 2zM278 848q146 -14 178 -14q170 0 236 90q14 20 14 50q0 98 -136 284q-110 -38 -292 -38v-372zM278 1404 q38 -4 70 -4q190 0 190 116q0 98 -112 292l-148 -154v-250z" />
<glyph unicode="C" horiz-adv-x="910" d="M82 1126q0 352 424 994q136 -178 396 -510h-272q-44 50 -106 126q-224 -346 -224 -580q0 -320 406 -320q82 0 170 16l-24 -30q38 -2 38 -90q0 -38 -6 -82q-31 -1 -61 -1q-741 0 -741 477z" />
<glyph unicode="D" horiz-adv-x="934" d="M84 654v1436h198v-234q80 90 224 250q252 -194 388 -734q47 -193 47 -373q0 -27 -1 -53q-8 -212 -138 -290zM282 1634l6 -804q104 -18 190 -18q208 0 250 126q6 18 6 54q0 322 -168 706q-44 102 -90 136q-68 -74 -192 -204l8 20q-4 -10 -10 -16z" />
<glyph unicode="E" horiz-adv-x="910" d="M80 1116q0 352 424 994q200 -262 394 -508h-274q-34 40 -100 122q-66 -104 -110 -190h234l-50 -208h-270q-34 -108 -34 -194q0 -162 132 -242q108 -64 280 -64q80 0 168 16l-16 -8q34 -16 34 -104q0 -42 -8 -92q-31 -1 -61 -1q-743 0 -743 479z" />
<glyph unicode="F" horiz-adv-x="606" d="M86 648v1428h318q180 0 326 2l-42 -222l-394 2v-322h266l-62 -208h-204v-680h-208z" />
<glyph unicode="G" d="M74 1114q0 352 426 994q136 -178 396 -510h-272q-58 66 -106 124q-234 -360 -234 -572q0 -66 26 -120q101 -204 384 -204h16v560h238v-830h-238v80q-636 28 -636 478z" />
<glyph unicode="H" horiz-adv-x="896" d="M82 662v1424h216v-546h370v546h216v-1424h-216v680h-370v-680h-216z" />
<glyph unicode="I" horiz-adv-x="670" d="M76 646v200h190v1030h-190v200h594v-200h-188v-1030h188v-200h-594z" />
<glyph unicode="J" horiz-adv-x="872" d="M68 858q160 -26 252 -26q152 0 226 52q120 84 128 230q1 16 1 32q0 257 -213 590q-16 -18 -102 -122h-272l392 506q428 -644 428 -994q0 -477 -739 -477q-33 0 -67 1z" />
<glyph unicode="K" horiz-adv-x="872" d="M86 656v1422h218v-524l310 266l154 -136l-408 -352q514 -358 586 -684h-236q-78 228 -406 466v-458h-218z" />
<glyph unicode="L" horiz-adv-x="758" d="M86 646l4 1432h216v-1232h448v-200h-668z" />
<glyph unicode="M" horiz-adv-x="1376" d="M80 644v1434h200v-234l224 254q108 -88 208 -268q82 90 238 266q278 -214 376 -668q62 -286 62 -786h-212q0 1034 -256 1182q-86 -92 -136 -146q102 -244 134 -510q22 -182 22 -526h-212q0 1034 -256 1182q-92 -100 -184 -196v-10l-8 -4l4 -972h-48z" />
<glyph unicode="N" horiz-adv-x="934" d="M78 644v1434h200v-234l224 254q278 -220 376 -670q62 -282 62 -784h-212q0 1028 -256 1180q-96 -100 -184 -196v-12l-10 -4l4 -970h-48z" />
<glyph unicode="O" horiz-adv-x="1136" d="M78 1374q0 262 132 472q154 242 404 242q248 0 402 -242q134 -208 134 -472t-134 -472q-154 -242 -402 -242q-250 0 -404 242q-132 210 -132 472zM264 1374q0 -178 82 -328q100 -180 266 -180t266 180q84 148 84 328t-84 328q-100 180 -266 180q-160 0 -260 -174 q-88 -152 -88 -334z" />
<glyph unicode="P" horiz-adv-x="948" d="M84 646v1422h194v-290q182 204 284 322q390 -514 390 -796q0 -384 -647 -384h-27v-274h-194zM278 1102q44 -4 84 -4q148 0 250 50q134 66 134 198q0 164 -202 442q-56 -62 -266 -290v-396z" />
<glyph unicode="Q" horiz-adv-x="1250" d="M84 1362q0 270 148 478q168 236 432 236t430 -232q150 -208 150 -482t-150 -482q-166 -232 -430 -232t-430 232q-150 208 -150 482zM282 1362q0 -170 80 -314q94 -168 250 -190q-4 28 -12 104q124 -12 118 -12q120 0 120 116q0 106 -86 320q-6 16 -6 24h38q-44 10 -80 86 q32 60 104 168q162 -324 194 -512q34 96 34 210q0 186 -94 334q-108 174 -284 174t-284 -174q-92 -150 -92 -334z" />
<glyph unicode="R" horiz-adv-x="948" d="M84 658v1422h194v-292l286 322q390 -516 390 -796q0 -248 -276 -336l228 -322h-228l-200 282q-80 -8 -166 -8h-34v-272h-194zM278 1114q44 -4 84 -4q148 0 250 50q134 66 134 198q0 164 -200 442l-268 -290v-396z" />
<glyph unicode="S" horiz-adv-x="1074" d="M-12 818q332 18 538 114q250 116 282 300q-110 160 -312 338q-178 156 -370 278l-12 236h922l10 -192h-598q192 -126 358 -298q180 -186 274 -372q24 -48 44 -100q-80 42 -138 100h104v-40q-264 -472 -890 -518q-58 38 -212 154z" />
<glyph unicode="T" horiz-adv-x="846" d="M76 1886v198h924v-198h-350l-2 -1226h-218l4 1226h-358z" />
<glyph unicode="U" d="M86 2084h214q0 -1038 254 -1182l194 206l-4 978h48l156 -2v-1436h-200v236l-224 -252q-276 208 -374 662q-64 300 -64 790z" />
<glyph unicode="V" horiz-adv-x="1010" d="M70 2084h210l280 -1018l282 1018h210l-392 -1440h-212l8 38z" />
<glyph unicode="W" horiz-adv-x="1376" d="M76 2084h210q0 -1038 254 -1182q50 56 136 148q-100 244 -132 508q-22 182 -22 526h212q0 -1040 256 -1182q64 70 192 206l-8 -20q4 10 10 16l-6 982h48l156 -2v-1436h-198v236q-108 -120 -224 -252q-118 88 -212 264q-78 -88 -236 -264q-280 212 -376 664 q-60 290 -60 788z" />
<glyph unicode="X" d="M60 644l354 740l-336 700h250l212 -438l210 438h250l-334 -700l354 -740h-252l-228 476l-230 -476h-250z" />
<glyph unicode="Y" d="M84 2082h212q0 -368 34 -534q56 -284 220 -368q68 74 194 206l-8 -20q4 10 10 16l-6 700h48l156 -2v-1434q-76 0 -230 2h-232v200h264v314l-226 -252q-284 216 -374 526q-62 210 -62 646z" />
<glyph unicode="Z" horiz-adv-x="934" d="M86 660q0 570 508 1194h-508v234h834v-234h-20q-430 -432 -574 -960h594v-234h-834z" />
<glyph unicode="_" horiz-adv-x="922" d="M78 524v192h872v-192h-872z" />
<glyph unicode="a" horiz-adv-x="796" d="M86 938q0 206 290 592q88 -102 194 -222v200h200v-858h-160q-524 0 -524 288zM308 944q0 -116 194 -116q32 0 68 4v250l-148 154q-114 -194 -114 -292z" />
<glyph unicode="b" horiz-adv-x="744" d="M80 646v1418h198v-762q90 100 198 224q292 -386 292 -592q0 -288 -526 -288h-162zM278 854l4 -26q34 -4 64 -4q196 0 196 118q0 98 -114 292l-150 -160v-220z" />
<glyph unicode="c" horiz-adv-x="732" d="M86 950q0 206 292 592l332 -376v-46h-160q-50 52 -124 130q-116 -194 -116 -292q0 -118 198 -118q40 0 88 6l-26 -30q26 30 98 36q-12 -56 -30 -190h-42q-510 0 -510 288z" />
<glyph unicode="d" horiz-adv-x="808" d="M78 934q0 206 292 592q66 -76 198 -226v764h200v-1418h-164q-526 0 -526 288zM304 942q0 -118 196 -118q30 0 64 4l4 26v220q-44 44 -150 160q-114 -196 -114 -292z" />
<glyph unicode="e" horiz-adv-x="732" d="M86 940q0 206 288 590l336 -376l-22 -128h-362q-14 -48 -14 -86q0 -112 188 -112q42 0 92 6l-26 -30q26 30 98 36q-18 -100 -30 -190h-35q-513 0 -513 290zM386 1172h98q-26 28 -62 66q-20 -34 -36 -66z" />
<glyph unicode="f" horiz-adv-x="480" d="M78 646v1434h242q104 0 252 2l-42 -212l-258 2v-690h176l-26 -148h-150v-388h-194z" />
<glyph unicode="g" horiz-adv-x="808" d="M84 934q0 206 290 592l204 -230v218h196v-1336h-496l46 204h254v264h-13q-481 0 -481 288zM308 940q0 -116 192 -116q32 0 68 4l10 240q-14 16 -88 92l-68 72q-114 -194 -114 -292z" />
<glyph unicode="h" horiz-adv-x="808" d="M86 646v1418h200v-760q82 92 196 220q236 -278 276 -428q26 -104 26 -260q0 -74 -8 -186h-232l4 26q8 92 8 160q0 132 -22 208q-24 90 -96 192q-50 -54 -152 -162v-428h-200z" />
<glyph unicode="i" horiz-adv-x="328" d="M86 650v884h194v-884h-194zM86 1630v452h194v-452h-194z" />
<glyph unicode="j" horiz-adv-x="328" d="M-230 186l60 206h246v1146h196v-1352h-502zM78 1632v446h192v-446h-192z" />
<glyph unicode="k" horiz-adv-x="796" d="M80 646v1436h198v-852l-46 20q24 36 102 122q22 26 326 362l76 -170l-152 -162q116 -156 154 -263t38 -289q0 -78 -8 -200h-230q10 116 10 192q0 130 -22 208q-24 92 -94 192l-154 -164l2 -432h-200z" />
<glyph unicode="l" horiz-adv-x="328" d="M82 656v1422h198v-1422h-198z" />
<glyph unicode="m" horiz-adv-x="1212" d="M80 650v860h198v-206q68 78 196 224q132 -158 190 -248q72 82 220 248q236 -278 276 -428q26 -104 26 -260q0 -74 -8 -186h-232l4 26q8 92 8 160q0 130 -22 208q-24 88 -96 192l-102 -110q40 -110 40 -266q0 -60 -10 -210h-232q12 114 12 190q0 128 -22 206 q-24 90 -94 190q-58 -62 -154 -162l2 -430h-68z" />
<glyph unicode="n" horiz-adv-x="796" d="M80 650v860h198v-206q68 78 196 224q236 -278 276 -428q26 -104 26 -260q0 -74 -8 -186h-232q12 114 12 190q0 128 -22 206q-24 90 -94 190q-58 -62 -154 -162l2 -430h-68z" />
<glyph unicode="o" horiz-adv-x="834" d="M80 1080q0 168 100 292q108 132 272 132q162 0 270 -134q100 -124 100 -290t-100 -292q-108 -134 -270 -134q-166 0 -272 134q-100 124 -100 292zM268 1080q0 -84 48 -148q54 -70 136 -70q80 0 134 72q48 64 48 146t-48 146q-54 70 -134 70q-82 0 -133 -66t-51 -150z" />
<glyph unicode="p" horiz-adv-x="758" d="M76 174v1336h198v-194q88 98 196 222q290 -386 290 -592q0 -288 -479 -288h-7v-484h-198zM274 840q38 -4 70 -4q190 0 190 118q0 98 -112 292q-56 -58 -148 -156v-250z" />
<glyph unicode="q" horiz-adv-x="782" d="M86 946q0 206 290 592q106 -126 196 -224v196h198v-1336h-198v484q-486 0 -486 288zM310 954q0 -118 192 -118q32 0 70 4v250q-60 60 -148 156q-114 -196 -114 -292z" />
<glyph unicode="r" horiz-adv-x="656" d="M84 650v862h200v-202q82 94 194 216q136 -178 222 -338l-202 -80q-38 76 -68 128q-76 -80 -146 -156l2 -432h-72z" />
<glyph unicode="s" horiz-adv-x="770" d="M18 788q172 36 244 64q164 60 188 152q-110 156 -338 304h-28v204h678v-204h-324q170 -126 278 -380h-48l30 30q-6 0 -12 2l10 -18l-6 -14q-146 -272 -552 -306q-62 82 -120 166z" />
<glyph unicode="t" horiz-adv-x="518" d="M84 656v1422h198v-548h278l-50 -208h-228v-666h-198z" />
<glyph unicode="u" horiz-adv-x="796" d="M76 1320q0 76 8 190h230q-10 -116 -10 -192q0 -128 22 -206q24 -90 96 -188q74 80 152 162v428h200v-870h-200v216q-62 -70 -196 -224q-236 276 -276 428q-26 104 -26 256z" />
<glyph unicode="v" horiz-adv-x="846" d="M-8 1510h220l274 -498l222 498h218l-436 -916z" />
<glyph unicode="w" horiz-adv-x="1188" d="M70 1312q0 76 8 198h232q-14 -118 -14 -196q0 -226 118 -392l102 108q-40 104 -40 258q0 66 12 222h228q-10 -116 -10 -192q0 -128 22 -206q26 -90 96 -190q56 62 152 162v430h200v-870h-200v212q-82 -94 -196 -220q-130 152 -190 246q-72 -80 -218 -246 q-238 278 -278 428q-24 96 -24 248z" />
<glyph unicode="x" horiz-adv-x="834" d="M46 1510h234l172 -270l174 270h222l-284 -448l262 -412h-234l-144 228l-146 -228h-228l260 406z" />
<glyph unicode="y" horiz-adv-x="796" d="M76 1320q0 76 8 190h230q-10 -116 -10 -192q0 -128 22 -206q24 -90 94 -190l154 164v428h200v-1336h-200v680q-68 -76 -196 -222q-236 276 -276 428q-26 104 -26 256z" />
<glyph unicode="z" horiz-adv-x="858" d="M72 654q128 456 402 656h-392v202h764v-202h-26q-202 -156 -250 -200q-136 -126 -192 -256h468v-200h-774z" />
<glyph unicode="&#xa8;" horiz-adv-x="1136" />
<glyph unicode="&#xa9;" horiz-adv-x="1136" d="M86 1364q0 262 132 472q154 242 404 242q252 0 406 -248q130 -210 130 -466q0 -262 -128 -468q-154 -246 -408 -246t-408 246q-128 206 -128 468zM272 1364q0 -180 82 -328q98 -180 266 -180q166 0 266 180q84 148 84 328t-84 328q-100 180 -266 180q-160 0 -260 -174 q-88 -152 -88 -334zM300 1262q0 206 292 592l334 -374v-48h-162q-56 56 -124 130q-114 -194 -114 -292q0 -118 198 -118q40 0 88 6l-26 -30q26 30 96 36q-16 -90 -30 -190q-552 -12 -552 288z" />
<glyph unicode="&#xad;" d="M78 1330v192h872v-192h-872z" />
<glyph unicode="&#xae;" horiz-adv-x="1136" d="M86 1364q0 262 132 472q154 242 404 242q248 0 402 -242q134 -208 134 -472q0 -262 -132 -472q-154 -242 -404 -242q-254 0 -408 246q-128 206 -128 468zM272 1364q0 -180 82 -328q98 -180 266 -180q166 0 266 180q84 148 84 328t-84 328q-100 180 -266 180 q-160 0 -260 -174q-88 -152 -88 -334zM402 954v832h136v-142q80 90 150 166q232 -306 232 -470q0 -142 -148 -198l134 -188h-162l-112 158q-46 -4 -94 -4v-154h-136zM538 1238q18 -2 34 -2q76 0 132 26q74 34 74 102q0 86 -102 232q-62 -66 -138 -150v-208z" />
<glyph unicode="&#xd2;" horiz-adv-x="682" d="M92 2022l184 90l124 -642l-182 -90zM354 2022l184 90l124 -642l-182 -90z" />
<glyph unicode="&#xd3;" horiz-adv-x="682" d="M92 1470l126 642l182 -90l-124 -642zM354 1470l126 642l182 -90l-124 -642z" />
<glyph unicode="&#xd4;" horiz-adv-x="390" d="M76 1520l126 644l184 -90l-126 -644z" />
<glyph unicode="&#xd5;" horiz-adv-x="390" d="M76 1520l126 644l184 -90l-126 -644z" />
<glyph unicode="&#x2000;" horiz-adv-x="1115" />
<glyph unicode="&#x2001;" horiz-adv-x="2230" />
<glyph unicode="&#x2002;" horiz-adv-x="1115" />
<glyph unicode="&#x2003;" horiz-adv-x="2230" />
<glyph unicode="&#x2004;" horiz-adv-x="743" />
<glyph unicode="&#x2005;" horiz-adv-x="557" />
<glyph unicode="&#x2006;" horiz-adv-x="371" />
<glyph unicode="&#x2007;" horiz-adv-x="371" />
<glyph unicode="&#x2008;" horiz-adv-x="278" />
<glyph unicode="&#x2009;" horiz-adv-x="446" />
<glyph unicode="&#x200a;" horiz-adv-x="123" />
<glyph unicode="&#x2010;" d="M78 1330v192h872v-192h-872z" />
<glyph unicode="&#x2011;" d="M78 1330v192h872v-192h-872z" />
<glyph unicode="&#x2012;" d="M78 1330v192h872v-192h-872z" />
<glyph unicode="&#x2013;" horiz-adv-x="1112" d="M78 1330v192h1024v-192h-1024z" />
<glyph unicode="&#x2014;" horiz-adv-x="2136" d="M78 1330v192h2048v-192h-2048z" />
<glyph unicode="&#x2018;" horiz-adv-x="390" d="M76 1520l126 644l184 -90l-126 -644z" />
<glyph unicode="&#x2019;" horiz-adv-x="390" d="M76 1520l126 644l184 -90l-126 -644z" />
<glyph unicode="&#x201c;" horiz-adv-x="682" d="M92 2022l184 90l124 -642l-182 -90zM354 2022l184 90l124 -642l-182 -90z" />
<glyph unicode="&#x201d;" horiz-adv-x="682" d="M92 1470l126 642l182 -90l-124 -642zM354 1470l126 642l182 -90l-124 -642z" />
<glyph unicode="&#x202f;" horiz-adv-x="446" />
<glyph unicode="&#x205f;" horiz-adv-x="557" />
<glyph unicode="&#x25fc;" horiz-adv-x="1510" d="M0 0v1510h1510v-1510h-1510z" />
</font>
</defs>
</svg>
